<mxfile host="app.diagrams.net" modified="2024-01-22T15:07:15.628Z" agent="Mozilla/5.0 (X11; Ubuntu; Linux x86_64; rv:109.0) Gecko/20100101 Firefox/119.0" version="22.1.21" etag="wAG9plFWdIE4zy1Y5gIy" type="github">
  <diagram name="Page-1" id="iysVVaCef7kmxs06Zssg">
    <mxGraphModel>
      <root>
        <mxCell id="0" />
        <mxCell id="1" parent="0" />
      </root>
    </mxGraphModel>
  </diagram>
</mxfile>
